<svg width="15" height="15" viewBox="0 0 15 15" fill="none" xmlns="http://www.w3.org/2000/svg">
<g clip-path="url(#clip0)">
<path d="M13.0139 5.69646L12.9426 5.67103L12.6639 5.00583L12.6941 4.93748C13.5383 3.02285 13.4801 2.96574 13.3401 2.82693L12.214 1.72839C12.168 1.68272 12.0871 1.65059 12.0174 1.65059C11.9541 1.65059 11.7622 1.65059 10.099 2.40385L10.0323 2.43379L9.34617 2.15747L9.31863 2.08916C8.53653 0.152588 8.45642 0.152588 8.2618 0.152588H6.67152C6.47762 0.152588 6.38932 0.152588 5.66409 2.09253L5.63679 2.16315L4.95419 2.44141L4.88892 2.41428C3.76321 1.93969 3.10593 1.69902 2.93459 1.69902C2.86506 1.69902 2.78394 1.73022 2.73769 1.77577L1.61056 2.87747C1.46758 3.01851 1.40827 3.07757 2.29669 4.95225L2.32934 5.02177L2.05023 5.68624L1.98192 5.71265C0 6.47856 0 6.55324 0 6.75273V8.31109C0 8.51111 0 8.59418 1.98585 9.30587L2.05684 9.33094L2.336 9.99346L2.30602 10.0612C1.46182 11.9767 1.51536 12.0285 1.65908 12.1715L2.78345 13.2715C2.83058 13.3168 2.91216 13.3492 2.98172 13.3492C3.04468 13.3492 3.23613 13.3492 4.90036 12.5963L4.96701 12.5651L5.65362 12.8428L5.68031 12.9115C6.4629 14.8474 6.5433 14.8474 6.73804 14.8474H8.32881C8.52854 14.8474 8.61137 14.8474 9.33717 12.9061L9.36423 12.8355L10.0479 12.5591L10.113 12.5856C11.2378 13.0615 11.8947 13.3017 12.065 13.3017C12.1339 13.3017 12.2157 13.2715 12.2628 13.2249L13.3917 12.1208C13.5337 11.9791 13.5929 11.9211 12.7029 10.0482L12.6698 9.97788L12.9484 9.31629L13.015 9.29021C15 8.52028 15 8.44524 15 8.2455V6.68807C15 6.4881 15 6.40551 13.0139 5.69646ZM7.49998 10.0274C6.07872 10.0274 4.92251 8.89326 4.92251 7.50027C4.92251 6.10725 6.07877 4.97464 7.49998 4.97464C8.92063 4.97464 10.0766 6.10749 10.0766 7.50027C10.0767 8.89301 8.92067 10.0274 7.49998 10.0274Z" fill="#23A4A4"/>
</g>
<defs>
<clipPath id="clip0">
<rect width="15" height="15" fill="white"/>
</clipPath>
</defs>
</svg>
