<svg width="32" height="32" viewBox="0 0 32 32" fill="none" xmlns="http://www.w3.org/2000/svg">
<path d="M27.763 12.1525L27.6108 12.0982L27.0163 10.6791L27.0808 10.5333C28.8817 6.44879 28.7575 6.32695 28.4588 6.03082L26.0565 3.68728C25.9583 3.58984 25.7858 3.5213 25.6372 3.5213C25.502 3.5213 25.0926 3.5213 21.5446 5.12826L21.4023 5.19212L19.9385 4.60265L19.8797 4.45692C18.2113 0.325562 18.0404 0.325562 17.6252 0.325562H14.2326C13.8189 0.325562 13.6305 0.325562 12.0834 4.4641L12.0251 4.61476L10.5689 5.20839L10.4297 5.1505C8.02819 4.13804 6.62598 3.62463 6.26045 3.62463C6.11213 3.62463 5.93906 3.69117 5.84041 3.78835L3.43587 6.13865C3.13083 6.43953 3.00432 6.56552 4.89961 10.5648L4.96927 10.7132L4.37382 12.1307L4.2281 12.187C0 13.821 0 13.9803 0 14.4059V17.7304C0 18.1571 0 18.3343 4.23649 19.8526L4.38793 19.906L4.98346 21.3194L4.91951 21.4638C3.11854 25.5503 3.23277 25.6609 3.53936 25.9658L5.93803 28.3126C6.03858 28.4092 6.2126 28.4783 6.36101 28.4783C6.49531 28.4783 6.90375 28.4783 10.4541 26.8721L10.5963 26.8056L12.0611 27.398L12.118 27.5445C13.7875 31.6745 13.959 31.6745 14.3745 31.6745H17.7681C18.1942 31.6745 18.3709 31.6745 19.9193 27.5332L19.977 27.3824L21.4356 26.7928L21.5744 26.8494C23.9739 27.8647 25.3754 28.3771 25.7386 28.3771C25.8856 28.3771 26.0602 28.3126 26.1605 28.2132L28.569 25.8578C28.8719 25.5554 28.9982 25.4317 27.0995 21.4362L27.0289 21.2862L27.6233 19.8748L27.7652 19.8192C32.0001 18.1766 32.0001 18.0165 32.0001 17.5904V14.2679C32 13.8413 32 13.6651 27.763 12.1525ZM16 21.3918C12.9679 21.3918 10.5014 18.9723 10.5014 16.0006C10.5014 13.0288 12.968 10.6126 16 10.6126C19.0307 10.6126 21.4968 13.0294 21.4968 16.0006C21.4969 18.9718 19.0308 21.3918 16 21.3918Z" fill="#5B5B5B"/>
</svg>
