<svg width="146" height="43" viewBox="0 0 146 43" fill="none" xmlns="http://www.w3.org/2000/svg">
<path d="M139.677 26.5498C139.463 27.2984 139.222 28.146 138.296 28.9366C137.167 29.9073 135.828 29.931 134.623 28.9999C134.115 28.6102 133.78 28.2074 133.646 27.8134C133.556 27.5495 133.52 27.2785 133.513 27.01C133.115 27.7014 132.925 28.4053 132.739 29.0933C132.694 29.2569 132.651 29.4178 132.605 29.5783C132.569 29.7033 132.471 29.8009 132.346 29.8363C132.22 29.8719 132.086 29.8406 131.99 29.7528C131.536 29.3391 131.063 28.8839 130.499 28.3199C130.074 27.8956 129.65 27.4604 129.219 27.0188L128.934 26.7275C128.851 26.6411 128.813 26.5205 128.833 26.4016C128.853 26.2827 128.928 26.1814 129.036 26.1276C129.221 26.0356 129.414 25.9925 129.583 25.9544C129.639 25.9419 129.694 25.9297 129.749 25.9156L129.853 25.8853C130.024 25.8374 130.194 25.789 130.37 25.7257L130.554 25.657C130.914 25.524 131.287 25.3862 131.622 25.1843C131.636 25.1758 131.65 25.1675 131.663 25.159C131.165 25.1598 130.634 25.0529 130.174 24.6379C129.521 24.0372 129.228 23.3705 129.132 23.1191C128.771 22.1447 128.996 21.179 129.8 20.2466C130.132 19.8622 130.611 19.5126 131.115 19.2857C131.804 18.9715 132.666 18.7842 133.428 18.618C133.81 18.5382 134.195 18.4826 134.567 18.4283C134.758 18.402 136.331 18.1844 136.565 18.1599C137.694 18.041 138.869 17.7491 140.007 17.4661C140.282 17.3977 140.557 17.3291 140.831 17.2634C140.958 17.2328 141.092 17.2703 141.184 17.3626C141.184 17.3626 141.184 17.3626 141.184 17.3629C141.277 17.4554 141.315 17.5893 141.284 17.7164C141.144 18.3022 141.025 18.8922 140.897 19.5163L140.755 20.2115C140.576 21.0588 140.464 21.9425 140.356 22.7962C140.203 24.0047 140.045 25.2537 139.694 26.4849L139.677 26.5498Z" fill="url(#paint0_linear)"/>
<rect x="126" y="14" width="19" height="19" stroke="url(#paint1_linear)" stroke-width="2"/>
<path d="M0.42 31.396L3.276 27.574C4.564 28.414 5.782 29.044 6.93 29.464C8.078 29.856 9.226 30.052 10.374 30.052C11.662 30.052 12.684 29.842 13.44 29.422C14.224 29.002 14.616 28.442 14.616 27.742C14.616 27.182 14.392 26.734 13.944 26.398C13.524 26.062 12.838 25.824 11.886 25.684L7.686 25.054C5.53 24.718 3.878 24.018 2.73 22.954C1.61 21.89 1.05 20.476 1.05 18.712C1.05 16.612 1.876 14.932 3.528 13.672C5.18 12.412 7.392 11.782 10.164 11.782C11.76 11.782 13.314 12.02 14.826 12.496C16.338 12.944 17.78 13.616 19.152 14.512L16.38 18.208C15.176 17.508 14.028 16.99 12.936 16.654C11.844 16.29 10.738 16.108 9.618 16.108C8.582 16.108 7.742 16.304 7.098 16.696C6.482 17.088 6.174 17.606 6.174 18.25C6.174 18.838 6.398 19.3 6.846 19.636C7.322 19.944 8.092 20.168 9.156 20.308L13.356 20.938C15.484 21.246 17.122 21.946 18.27 23.038C19.446 24.13 20.034 25.516 20.034 27.196C20.034 28.232 19.782 29.198 19.278 30.094C18.802 30.962 18.144 31.718 17.304 32.362C16.464 33.006 15.456 33.51 14.28 33.874C13.104 34.238 11.83 34.42 10.458 34.42C8.47 34.42 6.608 34.168 4.872 33.664C3.136 33.132 1.652 32.376 0.42 31.396ZM22.8989 42.778V12.118H28.5689V13.924C29.4369 13.224 30.4029 12.706 31.4669 12.37C32.5309 12.006 33.6369 11.824 34.7849 11.824C36.3249 11.824 37.7669 12.118 39.1109 12.706C40.4829 13.294 41.6729 14.092 42.6809 15.1C43.6889 16.108 44.4729 17.298 45.0329 18.67C45.6209 20.042 45.9149 21.512 45.9149 23.08C45.9149 24.648 45.6209 26.118 45.0329 27.49C44.4449 28.862 43.6469 30.052 42.6389 31.06C41.6309 32.068 40.4269 32.866 39.0269 33.454C37.6549 34.014 36.1849 34.294 34.6169 34.294C33.5529 34.294 32.5029 34.154 31.4669 33.874C30.4589 33.566 29.5209 33.132 28.6529 32.572V42.778H22.8989ZM33.8609 16.738C32.8249 16.738 31.8589 16.92 30.9629 17.284C30.0669 17.62 29.2969 18.124 28.6529 18.796V27.406C29.2689 28.022 30.0249 28.512 30.9209 28.876C31.8449 29.24 32.8249 29.422 33.8609 29.422C35.6529 29.422 37.1649 28.82 38.3969 27.616C39.6289 26.384 40.2449 24.872 40.2449 23.08C40.2449 21.288 39.6149 19.79 38.3549 18.586C37.1229 17.354 35.6249 16.738 33.8609 16.738ZM56.571 34.378C54.219 34.378 52.301 33.762 50.817 32.53C49.333 31.27 48.591 29.646 48.591 27.658C48.591 25.586 49.389 23.962 50.985 22.786C52.581 21.61 54.779 21.022 57.579 21.022C58.475 21.022 59.371 21.092 60.267 21.232C61.163 21.372 62.045 21.582 62.913 21.862V20.308C62.913 19.048 62.521 18.096 61.737 17.452C60.953 16.808 59.805 16.486 58.293 16.486C57.369 16.486 56.361 16.64 55.269 16.948C54.205 17.228 52.987 17.676 51.615 18.292L49.515 14.05C51.223 13.266 52.875 12.678 54.471 12.286C56.095 11.894 57.691 11.698 59.259 11.698C62.199 11.698 64.481 12.412 66.105 13.84C67.757 15.24 68.583 17.228 68.583 19.804V34H62.913V32.488C61.989 33.132 61.009 33.608 59.973 33.916C58.965 34.224 57.831 34.378 56.571 34.378ZM54.093 27.532C54.093 28.372 54.457 29.044 55.185 29.548C55.913 30.024 56.879 30.262 58.083 30.262C59.035 30.262 59.903 30.15 60.687 29.926C61.499 29.674 62.241 29.324 62.913 28.876V25.6C62.213 25.32 61.471 25.124 60.687 25.012C59.931 24.872 59.133 24.802 58.293 24.802C56.977 24.802 55.941 25.054 55.185 25.558C54.457 26.034 54.093 26.692 54.093 27.532ZM89.2759 34V32.194C88.4079 32.894 87.4419 33.426 86.3779 33.79C85.3139 34.126 84.2079 34.294 83.0599 34.294C81.5199 34.294 80.0639 34 78.6919 33.412C77.3479 32.824 76.1719 32.026 75.1639 31.018C74.1559 30.01 73.3579 28.82 72.7699 27.448C72.2099 26.076 71.9299 24.606 71.9299 23.038C71.9299 21.47 72.2239 20 72.8119 18.628C73.3999 17.256 74.1979 16.066 75.2059 15.058C76.2139 14.05 77.4039 13.266 78.7759 12.706C80.1759 12.118 81.6599 11.824 83.2279 11.824C84.2919 11.824 85.3279 11.978 86.3359 12.286C87.3719 12.566 88.3239 12.986 89.1919 13.546V4.6L94.9459 3.34V34H89.2759ZM77.5999 23.038C77.5999 24.802 78.2159 26.3 79.4479 27.532C80.6799 28.764 82.1919 29.38 83.9839 29.38C85.0479 29.38 86.0139 29.198 86.8819 28.834C87.7779 28.47 88.5479 27.952 89.1919 27.28V18.754C88.5759 18.11 87.8059 17.606 86.8819 17.242C85.9859 16.878 85.0199 16.696 83.9839 16.696C82.1639 16.696 80.6379 17.312 79.4059 18.544C78.2019 19.748 77.5999 21.246 77.5999 23.038ZM119.089 31.27C117.745 32.362 116.359 33.16 114.931 33.664C113.531 34.168 111.963 34.42 110.227 34.42C108.575 34.42 107.021 34.126 105.565 33.538C104.137 32.95 102.891 32.152 101.827 31.144C100.791 30.136 99.965 28.946 99.349 27.574C98.761 26.174 98.467 24.676 98.467 23.08C98.467 21.512 98.747 20.042 99.307 18.67C99.895 17.27 100.693 16.066 101.701 15.058C102.709 14.022 103.899 13.21 105.271 12.622C106.671 12.034 108.155 11.74 109.723 11.74C111.263 11.74 112.691 12.048 114.007 12.664C115.351 13.252 116.499 14.064 117.451 15.1C118.431 16.136 119.187 17.382 119.719 18.838C120.279 20.266 120.559 21.82 120.559 23.5V25.012H104.263C104.655 26.384 105.411 27.49 106.531 28.33C107.651 29.17 108.967 29.59 110.479 29.59C111.431 29.59 112.327 29.436 113.167 29.128C114.007 28.82 114.721 28.386 115.309 27.826L119.089 31.27ZM109.597 16.486C108.281 16.486 107.147 16.892 106.195 17.704C105.243 18.488 104.585 19.552 104.221 20.896H114.931C114.567 19.608 113.895 18.558 112.915 17.746C111.963 16.906 110.857 16.486 109.597 16.486Z" fill="white"/>
<defs>
<linearGradient id="paint0_linear" x1="141.233" y1="17.411" x2="130.411" y2="28.2324" gradientUnits="userSpaceOnUse">
<stop stop-color="#5019EA"/>
<stop offset="1" stop-color="#19D3EA"/>
</linearGradient>
<linearGradient id="paint1_linear" x1="145.5" y1="12.5" x2="125" y2="34" gradientUnits="userSpaceOnUse">
<stop stop-color="#5019EA"/>
<stop offset="0.563781" stop-color="#19D3EA"/>
</linearGradient>
</defs>
</svg>
