<svg width="35" height="32" viewBox="0 0 35 32" fill="none" xmlns="http://www.w3.org/2000/svg">
<path d="M1.3654 31.0924H32.7012C33.1197 31.0924 33.51 30.9319 33.7718 30.6523C33.9994 30.4098 34.1001 30.1021 34.0569 29.786C33.3221 24.4085 29.8019 19.9275 24.9829 17.5383C22.9461 19.4516 20.1342 20.6367 17.0334 20.6367C13.9326 20.6367 11.1206 19.4516 9.08382 17.5383C4.26467 19.9268 0.743866 24.4085 0.00971927 29.786C-0.0334901 30.1021 0.0678804 30.4104 0.294764 30.6523C0.556626 30.9319 0.946882 31.0924 1.3654 31.0924Z" fill="#5B5B5B"/>
<path d="M9.97228 16.3757C10.1551 16.5558 10.3461 16.7274 10.5437 16.8935C12.2702 18.3443 14.5405 19.2342 17.0332 19.2342C19.5259 19.2342 21.7963 18.3435 23.5227 16.8935C23.7204 16.7274 23.9115 16.5557 24.0942 16.3757C24.2762 16.1956 24.4539 16.0113 24.6209 15.8179C25.9736 14.2445 26.7883 12.2465 26.7883 10.0711C26.7883 5.01812 22.4116 0.907776 17.0331 0.907776C11.6546 0.907776 7.27821 5.01877 7.27821 10.071C7.27821 12.2464 8.09288 14.2445 9.44554 15.8178C9.61193 16.0113 9.78943 16.1949 9.97228 16.3757Z" fill="#5B5B5B"/>
</svg>
